# xmcd
#
# Track frame offsets:
#	150
#	12400
#	23040
#	35523
#	49935
#	62965
#	74570
#	87238
#	103005
#	118118
#	129893
#	147128
#	157348
#	175833
#	190398
#	202795
#	217635
#	230975
#
# Disc length: 3237 seconds
#
# Revision: 1
# Processed by: cddbd v1.5.1PL0 Copyright (c) Steve Scherf et al.
# Submitted via: CDex 1.50Beta5
#
DISCID=050ca312
DTITLE=Various Artist - 甦るグループサウンズ大全集  [CD1]
DYEAR=1900
DGENRE=Pop
TTITLE0=青い瞳
TTITLE1=青い渚 - ジャッキー吉川とブルー・コメッツ
TTITLE2=ブルー・シャトウ - ジャッキー吉川とブルー・コメッツ
TTITLE3=甘いお話 - ジャッキー吉川とブルー・コメッツ
TTITLE4=マリアの泉 - ジャッキー吉川とブルー・コメッツ
TTITLE5=北国の二人 - ジャッキー吉川とブルー・コメッツ
TTITLE6=草原の輝き - ジャッキー吉川とブルー・コメッツ
TTITLE7=水夫のなげき
TTITLE8=涙のオルガン - ズー・ニー・ヴー
TTITLE9=白い珊瑚礁 - ズー・ニー・ヴー
TTITLE10=ミス・ケミッ子 (ケメ子の歌)
TTITLE11=恋よ恋よ恋よ
TTITLE12=天国からのお迎え
TTITLE13=星の王子様
TTITLE14=ブルー・エンジェル
TTITLE15=たった一言
TTITLE16=ラスト・チャンス
TTITLE17=欲ばりな恋
EXTD=
EXTT0=
EXTT1=
EXTT2=
EXTT3=
EXTT4=
EXTT5=
EXTT6=
EXTT7=
EXTT8=
EXTT9=
EXTT10=
EXTT11=
EXTT12=
EXTT13=
EXTT14=
EXTT15=
EXTT16=
EXTT17=
PLAYORDER=
